<svg width="128" height="128" viewBox="0 0 128 128" fill="none" xmlns="http://www.w3.org/2000/svg">
<g clip-path="url(#clip0_111_2)">
<rect width="128" height="128" fill="white"/>
<path d="M55.5455 98.4091C51.1212 98.4091 47.1364 97.6212 43.5909 96.0455C40.0758 94.4394 37.2879 92.0758 35.2273 88.9545C33.197 85.8333 32.1818 81.9848 32.1818 77.4091C32.1818 73.4697 32.9091 70.2121 34.3636 67.6364C35.8182 65.0606 37.803 63 40.3182 61.4545C42.8333 59.9091 45.6667 58.7424 48.8182 57.9545C52 57.1364 55.2879 56.5455 58.6818 56.1818C62.7727 55.7576 66.0909 55.3788 68.6364 55.0455C71.1818 54.6818 73.0303 54.1364 74.1818 53.4091C75.3636 52.6515 75.9545 51.4848 75.9545 49.9091V49.6364C75.9545 46.2121 74.9394 43.5606 72.9091 41.6818C70.8788 39.803 67.9545 38.8636 64.1364 38.8636C60.1061 38.8636 56.9091 39.7424 54.5455 41.5C52.2121 43.2576 50.6364 45.3333 49.8182 47.7273L34.4545 45.5455C35.6667 41.303 37.6667 37.7576 40.4545 34.9091C43.2424 32.0303 46.6515 29.8788 50.6818 28.4545C54.7121 27 59.1667 26.2727 64.0455 26.2727C67.4091 26.2727 70.7576 26.6667 74.0909 27.4545C77.4242 28.2424 80.4697 29.5455 83.2273 31.3636C85.9849 33.1515 88.197 35.5909 89.8636 38.6818C91.5606 41.7727 92.4091 45.6364 92.4091 50.2727V97H76.5909V87.4091H76.0455C75.0455 89.3485 73.6364 91.1667 71.8182 92.8636C70.0303 94.5303 67.7727 95.8788 65.0455 96.9091C62.3485 97.9091 59.1818 98.4091 55.5455 98.4091ZM59.8182 86.3182C63.1212 86.3182 65.9848 85.6667 68.4091 84.3636C70.8333 83.0303 72.697 81.2727 74 79.0909C75.3333 76.9091 76 74.5303 76 71.9545V63.7273C75.4849 64.1515 74.6061 64.5455 73.3636 64.9091C72.1515 65.2727 70.7879 65.5909 69.2727 65.8636C67.7576 66.1364 66.2576 66.3788 64.7727 66.5909C63.2879 66.803 62 66.9848 60.9091 67.1364C58.4545 67.4697 56.2576 68.0152 54.3182 68.7727C52.3788 69.5303 50.8485 70.5909 49.7273 71.9545C48.6061 73.2879 48.0455 75.0152 48.0455 77.1364C48.0455 80.1667 49.1515 82.4545 51.3636 84C53.5758 85.5455 56.3939 86.3182 59.8182 86.3182Z" fill="black"/>
</g>
<defs>
<clipPath id="clip0_111_2">
<rect width="128" height="128" fill="white"/>
</clipPath>
</defs>
</svg>
